<?xml version="1.0" encoding="UTF-8"?>
<svg version="1.1" xmlns="http://www.w3.org/2000/svg" width="319" height="36">
<path d="M0 0 C105.27 0 210.54 0 319 0 C319 11.88 319 23.76 319 36 C213.73 36 108.46 36 0 36 C0 24.12 0 12.24 0 0 Z " fill="#222B39" transform="translate(0,0)"/>
<path d="M0 0 C1.98 0 3.96 0 6 0 C6 6.93 6 13.86 6 21 C-6.41731871 21.36883125 -6.41731871 21.36883125 -8.89453125 19.80078125 C-10.35303527 17.42491429 -10.39978941 15.77641359 -10.375 13 C-10.38273437 12.13375 -10.39046875 11.2675 -10.3984375 10.375 C-9.92576336 7.55749138 -9.30541379 6.64979495 -7 5 C-3.8125 4.8125 -3.8125 4.8125 -1 5 C-0.67 3.35 -0.34 1.7 0 0 Z " fill="#D5D7DC" transform="translate(52,8)"/>
<path d="M0 0 C10.57745902 -0.12592213 10.57745902 -0.12592213 15 1 C15.33 0.67 15.66 0.34 16 0 C18.69130204 -0.28329495 20.35917139 -0.42570411 22.65234375 1.09765625 C24.66046464 3.93230805 24.28915145 6.26523449 24.1875 9.6875 C24.16042969 10.86699219 24.13335937 12.04648437 24.10546875 13.26171875 C24.07066406 14.16535156 24.03585938 15.06898437 24 16 C22.35 16 20.7 16 19 16 C18.67 12.37 18.34 8.74 18 5 C17.34 5 16.68 5 16 5 C15.67 8.63 15.34 12.26 15 16 C13.35 16 11.7 16 10 16 C9.67 12.37 9.34 8.74 9 5 C8.01 5 7.02 5 6 5 C5.67 8.63 5.34 12.26 5 16 C3.35 16 1.7 16 0 16 C0 10.72 0 5.44 0 0 Z " fill="#DDDFE3" transform="translate(138,13)"/>
<path d="M0 0 C1.65 0 3.3 0 5 0 C5 1.98 5 3.96 5 6 C6.0725 5.773125 7.145 5.54625 8.25 5.3125 C12 5 12 5 14.4375 5.875 C16.59677936 8.81161994 16.48292352 11.17597499 16.53125 14.74609375 C15.78435039 17.91492519 14.61229667 19.08402745 12 21 C7.93404512 21.52667809 4.11858117 21.17906875 0 21 C0 14.07 0 7.14 0 0 Z " fill="#DADDE1" transform="translate(23,8)"/>
<path d="M0 0 C1.4540625 0.0309375 1.4540625 0.0309375 2.9375 0.0625 C6.01586721 7.00645046 8.56570313 13.57997162 9.9375 21.0625 C8.2875 21.0625 6.6375 21.0625 4.9375 21.0625 C4.6075 19.7425 4.2775 18.4225 3.9375 17.0625 C2.65875 17.165625 1.38 17.26875 0.0625 17.375 C-0.65679687 17.43300781 -1.37609375 17.49101562 -2.1171875 17.55078125 C-4.45769216 17.93643036 -4.45769216 17.93643036 -6.0625 21.0625 C-8.6875 21.25 -8.6875 21.25 -11.0625 21.0625 C-5.17674579 0.10564787 -5.17674579 0.10564787 0 0 Z " fill="#DADDE1" transform="translate(11.0625,7.9375)"/>
<path d="M0 0 C2.9375 1.3125 2.9375 1.3125 5 3 C5 3.99 5 4.98 5 6 C1.14354879 6.22036864 -1.49223216 5.60355101 -5 4 C-5 5.32 -5 6.64 -5 8 C-3.9275 8.103125 -2.855 8.20625 -1.75 8.3125 C3.67918089 9.30784983 3.67918089 9.30784983 6 12 C6.5 15 6.5 15 6 18 C4.19755636 20.35101344 2.78064581 20.89686881 -0.12890625 21.28125 C-3.72550544 21.42345491 -6.29860212 21.34214531 -9.5625 19.75 C-11 18 -11 18 -11 14 C-9.35 14 -7.7 14 -6 14 C-6 14.66 -6 15.32 -6 16 C-3.69 16 -1.38 16 1 16 C-1.67087777 12.54356994 -4.92030553 12.11264395 -9 11 C-9.66 10.34 -10.32 9.68 -11 9 C-10.8125 5.5 -10.8125 5.5 -10 2 C-6.27420911 -0.48386059 -4.41288598 -0.3804212 0 0 Z " fill="#D7DADE" transform="translate(303,8)"/>
<path d="M0 0 C2.875 1.1875 2.875 1.1875 5 3 C5.8125 5.6875 5.8125 5.6875 6 8 C4.35 8 2.7 8 1 8 C0.67 7.34 0.34 6.68 0 6 C-3.02934491 5.34227572 -3.02934491 5.34227572 -6 5 C-6 8.63 -6 12.26 -6 16 C-3.02934491 15.65772428 -3.02934491 15.65772428 0 15 C0.33 14.34 0.66 13.68 1 13 C2.65 13 4.3 13 6 13 C5.7323244 16.30133235 5.4396165 17.62503298 2.875 19.8125 C-0.76251955 21.31495373 -3.09648606 21.55764485 -7 21 C-9.9375 19.1875 -9.9375 19.1875 -12 16 C-12.99433111 10.60797683 -12.9483945 6.46570059 -9.9375 1.8125 C-6.24802064 -0.46398727 -4.27062538 -0.61008934 0 0 Z " fill="#D6D8DD" transform="translate(283,8)"/>
<path d="M0 0 C1.65 0 3.3 0 5 0 C5 1.98 5 3.96 5 6 C6.0725 5.7525 7.145 5.505 8.25 5.25 C12 5 12 5 14.21875 6.59375 C16.50680544 9.68463191 16.41526031 11.44901291 16.25 15.25 C16.21390625 16.32765625 16.1778125 17.4053125 16.140625 18.515625 C16.07101563 19.74539062 16.07101563 19.74539062 16 21 C14.02 21 12.04 21 10 21 C9.67 17.37 9.34 13.74 9 10 C8.01 10 7.02 10 6 10 C5.67 13.63 5.34 17.26 5 21 C3.35 21 1.7 21 0 21 C0 14.07 0 7.14 0 0 Z " fill="#D9DBE0" transform="translate(119,8)"/>
<path d="M0 0 C1.65 0 3.3 0 5 0 C5.33 1.98 5.66 3.96 6 6 C6.33 5.67 6.66 5.34 7 5 C10.4375 5.25 10.4375 5.25 14 6 C16.35119399 9.52679099 16.21443452 11.02879485 16.125 15.1875 C16.10695313 16.27417969 16.08890625 17.36085938 16.0703125 18.48046875 C16.04710937 19.31191406 16.02390625 20.14335937 16 21 C14.35 21 12.7 21 11 21 C10.67 17.04 10.34 13.08 10 9 C8.68 9.33 7.36 9.66 6 10 C5.67 13.63 5.34 17.26 5 21 C3.35 21 1.7 21 0 21 C0 14.07 0 7.14 0 0 Z " fill="#E0E3E7" transform="translate(252,8)"/>
<path d="M0 0 C0.7940625 0.07863281 1.588125 0.15726563 2.40625 0.23828125 C4.5 0.6875 4.5 0.6875 6.5 2.6875 C6.6953125 5.7265625 6.6953125 5.7265625 6.625 9.3125 C6.60695312 10.50101563 6.58890625 11.68953125 6.5703125 12.9140625 C6.54710937 13.82929688 6.52390625 14.74453125 6.5 15.6875 C4.37527424 15.74136629 2.25016348 15.78023071 0.125 15.8125 C-1.05835938 15.83570312 -2.24171875 15.85890625 -3.4609375 15.8828125 C-6.5 15.6875 -6.5 15.6875 -8.5 13.6875 C-8.75 11.1875 -8.75 11.1875 -8.5 8.6875 C-5.49382731 5.68132731 -2.67618402 6.09164684 1.5 5.6875 C1.17 5.0275 0.84 4.3675 0.5 3.6875 C-2.14 4.0175 -4.78 4.3475 -7.5 4.6875 C-7.125 2.75 -7.125 2.75 -6.5 0.6875 C-4.02756353 -0.54871824 -2.72682061 -0.29658601 0 0 Z " fill="#CCCFD4" transform="translate(173.5,13.3125)"/>
<path d="M0 0 C3.92928045 0.26639189 5.05015493 0.43952506 7.6875 3.25 C8.078125 6.38671875 8.078125 6.38671875 7.9375 9.9375 C7.90140625 11.11699219 7.8653125 12.29648437 7.828125 13.51171875 C7.75851563 14.86716797 7.75851563 14.86716797 7.6875 16.25 C5.75030622 16.30406122 3.81268079 16.34282025 1.875 16.375 C0.79605469 16.39820312 -0.28289062 16.42140625 -1.39453125 16.4453125 C-4.3125 16.25 -4.3125 16.25 -7.3125 14.25 C-7.8125 11.8125 -7.8125 11.8125 -7.3125 9.25 C-4.02360421 6.52491491 -1.52962557 5.88853209 2.6875 6.25 C2.3575 5.59 2.0275 4.93 1.6875 4.25 C0.6975 3.92 -0.2925 3.59 -1.3125 3.25 C-1.3125 3.91 -1.3125 4.57 -1.3125 5.25 C-2.9625 5.25 -4.6125 5.25 -6.3125 5.25 C-3.91515319 0.29548326 -3.91515319 0.29548326 0 0 Z " fill="#CDD0D5" transform="translate(107.3125,12.75)"/>
<path d="M0 0 C2.33333333 0 4.66666667 0 7 0 C7.969375 -0.061875 8.93875 -0.12375 9.9375 -0.1875 C13 0 13 0 14.6796875 1.09375 C16.64803359 3.93562246 16.28870956 6.28011134 16.1875 9.6875 C16.16042969 10.86699219 16.13335937 12.04648437 16.10546875 13.26171875 C16.07066406 14.16535156 16.03585938 15.06898437 16 16 C14.35 16 12.7 16 11 16 C10.67 12.37 10.34 8.74 10 5 C9.01 5 8.02 5 7 5 C6.67 8.63 6.34 12.26 6 16 C4.02 16 2.04 16 0 16 C0 10.72 0 5.44 0 0 Z " fill="#D7DADE" transform="translate(183,13)"/>
<path d="M0 0 C2.3125 0.5625 2.3125 0.5625 4 2 C4.75 5.625 4.75 5.625 5 9 C1.7 9 -1.6 9 -5 9 C-4.67 9.66 -4.34 10.32 -4 11 C-1.03 11 1.94 11 5 11 C3 15 3 15 0.9765625 15.75 C-5.26314511 16.41335762 -5.26314511 16.41335762 -8.5625 14.5625 C-10.5701696 10.98361071 -10.80554658 8.0112932 -10 4 C-7.27424658 -0.1934668 -4.83563644 -0.60445455 0 0 Z " fill="#D0D3D8" transform="translate(226,13)"/>
<path d="M0 0 C2.875 1.6875 2.875 1.6875 5 4 C5 5.65 5 7.3 5 9 C1.7 9 -1.6 9 -5 9 C-4.67 9.99 -4.34 10.98 -4 12 C-1.36 11.67 1.28 11.34 4 11 C3.67 12.32 3.34 13.64 3 15 C1.58696762 15.2506019 0.16920526 15.47461921 -1.25 15.6875 C-2.03890625 15.81511719 -2.8278125 15.94273438 -3.640625 16.07421875 C-6.74080228 15.97669662 -7.87924552 15.24016633 -10 13 C-10.53125 10.625 -10.53125 10.625 -10.5 8 C-10.5103125 7.13375 -10.520625 6.2675 -10.53125 5.375 C-10 3 -10 3 -8.15234375 1.21484375 C-5.18372201 -0.46073041 -3.36293729 -0.48041961 0 0 Z " fill="#D1D3D8" transform="translate(71,13)"/>
<path d="M0 0 C1.98 0 3.96 0 6 0 C6.33 0.99 6.66 1.98 7 3 C8.65 3 10.3 3 12 3 C12.33 2.01 12.66 1.02 13 0 C13.66 0 14.32 0 15 0 C15.144375 0.763125 15.28875 1.52625 15.4375 2.3125 C17.31013334 5.53342934 18.10929595 5.60000134 21.5625 6.625 C22.77099609 6.92277344 22.77099609 6.92277344 24.00390625 7.2265625 C24.66261719 7.48179688 25.32132812 7.73703125 26 8 C26.33 8.99 26.66 9.98 27 11 C24.69 11 22.38 11 20 11 C20 10.34 20 9.68 20 9 C18.35 9 16.7 9 15 9 C14.67 9.99 14.34 10.98 14 12 C13.34 11.67 12.68 11.34 12 11 C12 10.01 12 9.02 12 8 C10.35 8 8.7 8 7 8 C6.67 8.99 6.34 9.98 6 11 C4.02 11 2.04 11 0 11 C0 7.37 0 3.74 0 0 Z " fill="#26303E" transform="translate(277,13)"/>
<path d="M0 0 C5.61 0 11.22 0 17 0 C17 1.65 17 3.3 17 5 C15.02 5 13.04 5 11 5 C11 10.28 11 15.56 11 21 C9.35 21 7.7 21 6 21 C6 15.72 6 10.44 6 5 C4.02 5 2.04 5 0 5 C0 3.35 0 1.7 0 0 Z " fill="#E0E3E7" transform="translate(199,8)"/>
<path d="M0 0 C2.3125 0.75 2.3125 0.75 4 2 C4.75 4.125 4.75 4.125 5 6 C1.80097361 6.08886184 -0.92677456 5.91058531 -4 5 C-4 6.98 -4 8.96 -4 11 C0.455 10.505 0.455 10.505 5 10 C4 14 4 14 2.3125 15.25 C-0.65138162 16.2112589 -2.89903178 16.32301752 -6 16 C-8.15625 14.79296875 -8.15625 14.79296875 -10 13 C-10.53125 10.625 -10.53125 10.625 -10.5 8 C-10.5103125 7.13375 -10.520625 6.2675 -10.53125 5.375 C-10 3 -10 3 -8.15625 1.20703125 C-5.25250304 -0.4184358 -3.283323 -0.34201281 0 0 Z " fill="#DBDDE2" transform="translate(244,13)"/>
<path d="M0 0 C3.63 0 7.26 0 11 0 C11 1.65 11 3.3 11 5 C9.02 5 7.04 5 5 5 C5 8.63 5 12.26 5 16 C3.35 16 1.7 16 0 16 C0 10.72 0 5.44 0 0 Z " fill="#DBDDE2" transform="translate(88,13)"/>
<path d="M0 0 C1.65 0 3.3 0 5 0 C5 6.93 5 13.86 5 21 C3.35 21 1.7 21 0 21 C0 14.07 0 7.14 0 0 Z " fill="#E3E5E9" transform="translate(79,8)"/>
<path d="M0 0 C2.0625 0.4375 2.0625 0.4375 4 1 C4 2.98 4 4.96 4 7 C2.125 7.625 2.125 7.625 0 8 C-0.66 7.34 -1.32 6.68 -2 6 C-1.44444444 1.44444444 -1.44444444 1.44444444 0 0 Z " fill="#353E4B" transform="translate(30,17)"/>
<path d="M0 0 C2.0625 0.4375 2.0625 0.4375 4 1 C4 2.98 4 4.96 4 7 C2.0625 7.5625 2.0625 7.5625 0 8 C-1 7 -1 7 -1.125 4 C-1 1 -1 1 0 0 Z " fill="#2A3441" transform="translate(48,17)"/>
<path d="M0 0 C0.721875 0.144375 1.44375 0.28875 2.1875 0.4375 C3.5796875 0.7159375 3.5796875 0.7159375 5 1 C6.66666667 1.33333333 8.33333333 1.66666667 10 2 C10.33 1.34 10.66 0.68 11 0 C11 0.99 11 1.98 11 3 C9.35 3 7.7 3 6 3 C6 3.66 6 4.32 6 5 C3.03 4.505 3.03 4.505 0 4 C0 2.68 0 1.36 0 0 Z " fill="#464E5A" transform="translate(298,12)"/>
<path d="M0 0 C1.65 0 3.3 0 5 0 C5 1.65 5 3.3 5 5 C3.35 5 1.7 5 0 5 C0 3.35 0 1.7 0 0 Z " fill="#F74A5E" transform="translate(312,24)"/>
<path d="M0 0 C2.97 0 5.94 0 9 0 C9 0.66 9 1.32 9 2 C6.36 2.66 3.72 3.32 1 4 C0.67 2.68 0.34 1.36 0 0 Z " fill="#2B3542" transform="translate(66,22)"/>
<path d="M0 0 C0.66 0.33 1.32 0.66 2 1 C2.625 4.0625 2.625 4.0625 3 7 C1.35 7 -0.3 7 -2 7 C-1.34 4.69 -0.68 2.38 0 0 Z " fill="#333D49" transform="translate(10,14)"/>
</svg>
